<svg width="41" height="41" viewBox="0 0 41 41" fill="none" xmlns="http://www.w3.org/2000/svg">
<path d="M30.4287 1.31799L31.1358 0.610886C30.7453 0.220362 30.1121 0.220362 29.7216 0.610886L30.4287 1.31799ZM39.0554 9.9447L39.7625 10.6518C40.1531 10.2613 40.1531 9.62812 39.7625 9.2376L39.0554 9.9447ZM12.097 36.9032L12.2931 37.8838C12.4867 37.845 12.6645 37.7499 12.8041 37.6103L12.097 36.9032ZM3.47024 28.2765L2.76314 27.5694C2.62354 27.709 2.52838 27.8868 2.48966 28.0803L3.47024 28.2765ZM11.0186 29.3548L12.0086 29.2134C11.9457 28.7734 11.6 28.4277 11.16 28.3649L11.0186 29.3548ZM1.31356 39.0598L0.332984 38.8637C0.267412 39.1916 0.370035 39.5305 0.606458 39.767C0.842881 40.0034 1.18182 40.106 1.50968 40.0404L1.31356 39.0598ZM29.7216 2.0251L38.3483 10.6518L39.7625 9.2376L31.1358 0.610886L29.7216 2.0251ZM29.7216 0.610886L2.76314 27.5694L4.17735 28.9836L31.1358 2.0251L29.7216 0.610886ZM3.32882 29.2664L10.8772 30.3447L11.16 28.3649L3.61166 27.2865L3.32882 29.2664ZM10.0287 29.4962L11.107 37.0446L13.0869 36.7617L12.0086 29.2134L10.0287 29.4962ZM2.48966 28.0803L0.332984 38.8637L2.29415 39.256L4.45082 28.4726L2.48966 28.0803ZM1.50968 40.0404L12.2931 37.8838L11.9008 35.9226L1.11745 38.0793L1.50968 40.0404ZM38.3483 9.2376L32.9566 14.6293L34.3708 16.0435L39.7625 10.6518L38.3483 9.2376ZM32.9566 14.6293L11.3898 36.1961L12.8041 37.6103L34.3708 16.0435L32.9566 14.6293ZM24.8691 7.95596L32.9566 16.0435L34.3708 14.6293L26.2833 6.54175L24.8691 7.95596Z" fill="black"/>
</svg>
